<svg width="31" height="30" viewBox="0 0 31 30" fill="none" xmlns="http://www.w3.org/2000/svg">
<path id="Vector" fill-rule="evenodd" clip-rule="evenodd" d="M24.2187 30H22.2813C21.7465 30 21.3125 29.58 21.3125 29.0625C21.3125 28.545 21.7465 28.125 22.2813 28.125H24.2187C24.7535 28.125 25.1875 28.545 25.1875 29.0625C25.1875 29.58 24.7535 30 24.2187 30ZM16.4687 30H9.2031C4.12009 30 0 26.0128 0 21.0938C0 18.7313 0.969662 16.4663 2.69503 14.7957C4.42134 13.1259 6.76183 12.1875 9.2031 12.1875C13.8163 12.1875 19.4786 12.1875 23.7344 12.1875C25.1478 12.1875 26.5031 11.6447 27.5018 10.6772C28.5016 9.71064 29.0625 8.39903 29.0625 7.03126C29.0625 5.66342 28.5016 4.35187 27.5018 3.38531C26.5031 2.41784 25.1478 1.87496 23.7344 1.87496H22.2813C21.7465 1.87496 21.3125 1.45502 21.3125 0.93748C21.3125 0.420014 21.7465 0 22.2813 0H23.7344C25.6612 0 27.5096 0.740629 28.8716 2.05967C30.2347 3.37781 31 5.16657 31 7.03126C31 8.89595 30.2347 10.6847 28.8716 12.0028C27.5096 13.3219 25.6612 14.0625 23.7344 14.0625H9.2031C7.27625 14.0625 5.42795 14.8031 4.06587 16.1222C2.70286 17.4403 1.93746 19.2291 1.93746 21.0938C1.93746 24.9768 5.19053 28.125 9.2031 28.125H16.4687C17.0035 28.125 17.4375 28.545 17.4375 29.0625C17.4375 29.58 17.0035 30 16.4687 30ZM19.375 1.87496H6.78127C6.24648 1.87496 5.81246 1.45502 5.81246 0.93748C5.81246 0.420014 6.24648 0 6.78127 0H19.375C19.9097 0 20.3437 0.420014 20.3437 0.93748C20.3437 1.45502 19.9097 1.87496 19.375 1.87496Z" fill="#05A351"/>
</svg>
