<svg width="15" height="15" viewBox="0 0 15 15" fill="none" xmlns="http://www.w3.org/2000/svg">
<g filter="url(#filter0_d_148_1968)">
<path fill-rule="evenodd" clip-rule="evenodd" d="M7.53724 12.5067C10.5066 12.5067 12.9138 10.0995 12.9138 7.13013C12.9138 4.16072 10.5066 1.75354 7.53724 1.75354C4.56783 1.75354 2.16064 4.16072 2.16064 7.13013C2.16064 10.0995 4.56783 12.5067 7.53724 12.5067Z" fill="white"/>
</g>
<path d="M9.71589 6.19169C9.55984 6.24824 9.39356 6.28572 9.2202 6.30392C9.39854 6.21596 9.53466 6.07774 9.59866 5.91114C9.43238 5.99303 9.24879 6.05087 9.05313 6.08315C8.89524 5.94428 8.67021 5.85828 8.42473 5.85828C7.94844 5.85828 7.565 6.17761 7.565 6.56909C7.565 6.62542 7.57077 6.67958 7.58493 6.73114C6.86971 6.70233 6.23685 6.41917 5.8117 5.98783C5.73748 6.0942 5.69394 6.21596 5.69394 6.34703C5.69394 6.59314 5.84737 6.8113 6.07607 6.93761C5.93786 6.93544 5.80226 6.90229 5.68739 6.85008C5.68739 6.85225 5.68739 6.85506 5.68739 6.85788C5.68739 7.20321 5.98559 7.49005 6.37664 7.55613C6.30661 7.57194 6.23029 7.57953 6.15108 7.57953C6.09601 7.57953 6.0404 7.57693 5.98821 7.56739C6.09968 7.84882 6.41598 8.05571 6.79208 8.06243C6.49938 8.25156 6.12774 8.36552 5.72542 8.36552C5.65486 8.36552 5.5872 8.36292 5.51953 8.35577C5.90061 8.55877 6.35225 8.67467 6.83929 8.67467C8.42237 8.67467 9.28787 7.59144 9.28787 6.6525C9.28787 6.62109 9.28655 6.59076 9.28472 6.56064C9.45546 6.46055 9.59892 6.33555 9.71589 6.19169Z" fill="#080809"/>
<defs>
<filter id="filter0_d_148_1968" x="0.294816" y="0.260878" width="14.4848" height="14.4848" filterUnits="userSpaceOnUse" color-interpolation-filters="sRGB">
<feFlood flood-opacity="0" result="BackgroundImageFix"/>
<feColorMatrix in="SourceAlpha" type="matrix" values="0 0 0 0 0 0 0 0 0 0 0 0 0 0 0 0 0 0 127 0" result="hardAlpha"/>
<feOffset dy="0.373166"/>
<feGaussianBlur stdDeviation="0.932914"/>
<feColorMatrix type="matrix" values="0 0 0 0 0 0 0 0 0 0 0 0 0 0 0 0 0 0 0.1 0"/>
<feBlend mode="normal" in2="BackgroundImageFix" result="effect1_dropShadow_148_1968"/>
<feBlend mode="normal" in="SourceGraphic" in2="effect1_dropShadow_148_1968" result="shape"/>
</filter>
</defs>
</svg>
